<svg width="310" height="320" xmlns="http://www.w3.org/2000/svg">

	<g>
		<title>background</title>
		<rect fill="none" id="canvas_background" height="322" width="312" y="-1" x="-1"/>
	</g>
	<g>
		<title>Layer 1</title>
		<g id="OBJECTS">
			<circle id="svg_1" fill="#FFEBD6" r="123.723999" cy="172.34788" cx="154.999994"/>
			<g id="svg_2">
				<g id="svg_3">
					<g id="svg_4">
						<path id="svg_5" fill="#722626" d="m68.600994,187.03588c9.651,11.875 52.151,-4.261 52.151,-4.261l0,-5.186c-26.81,-5.995 -61.801,-2.428 -52.151,9.447z"/>
						<path id="svg_6" fill="#722626" d="m62.082994,170.06988c3.828,18.076 51.537,9.042 51.537,9.042l1.309,-5.018c-24.428,-12.569 -56.017,-18.994 -52.846,-4.024z"/>
						<path id="svg_7" fill="#722626" d="m56.377994,151.29488c1.897,18.379 50.293,14.438 50.293,14.438l1.832,-4.852c-22.962,-15.08 -53.695,-24.807 -52.125,-9.586z"/>
						<path id="svg_8" fill="#722626" d="m122.995994,189.98088c0,0 -34.216,22.204 -40.533,5.037c-6.818,-18.528 39.305,-12.114 39.305,-12.114l1.228,7.077z"/>
						<path id="svg_9" fill="#722626" d="m157.202994,158.02288c-2.271,-44.977 -39.12,-150.608 -58.571,-149.906c-14.93,0.539 -11.664,23.746 -4.997,36.614c0,0 -9.241,-18.717 -18.482,-17.781c-5.365,0.543 -3.509,21.056 -3.509,21.056l75.466,111.037l10.093,-1.02z"/>
					</g>
					<g id="svg_10">
						<path id="svg_11" fill="#28211C" d="m112.953994,253.59488c2.029,28.075 22.033,63.168 33.964,57.729c11.932,-5.439 -32.637,-60.887 -32.637,-60.887l-1.327,3.158z"/>
						<path id="svg_12" fill="#28211C" d="m114.281994,250.43688c17.196,45.095 45.007,60.01 51.28,52.465c6.273,-7.545 -49.701,-54.57 -49.701,-54.57l-1.579,2.105z"/>
						<path id="svg_13" fill="#28211C" d="m118.492994,246.57588l-2.632,1.755c27.373,42.989 60.887,51.784 62.466,41.596c1.579,-10.187 -58.255,-41.596 -59.834,-43.351z"/>
						<path id="svg_14" fill="#28211C" d="m121.475994,246.13788l-2.983,0.439c16.494,21.933 58.606,34.216 58.431,24.741c-0.176,-9.476 -50.535,-18.776 -55.448,-25.18z"/>
					</g>
					<path id="svg_15" fill="#9A3A38" d="m201.890994,178.93788c-1.402,1.965 -2.048,4.948 -2.392,8.563c-1.127,12.041 1.155,31.105 -9.608,43.104c-4.082,4.55 -8.769,7.711 -13.814,9.951c-0.013,0 -0.027,0.014 -0.041,0.014c-0.014,0.014 -0.041,0.014 -0.055,0.027c-6.048,2.667 -12.604,4 -19.188,4.756c-17.319,2.007 -34.802,0.082 -43.847,8.247c-8.838,-73.7 16.81,-89.081 46.362,-95.871c1.773,-9.401 5.539,-16.109 10.336,-20.672c12.412,-11.848 31.682,-9.278 40.671,-2.021c11.122,8.976 14.448,35.861 -8.424,43.902z"/>
					<path id="svg_16" fill="#58573B" d="m199.499994,149.89488l0,37.606c-1.127,12.041 1.155,31.105 -9.608,43.104c-4.082,4.55 -8.769,7.711 -13.814,9.951c-0.013,0 -0.027,0.014 -0.041,0.014c-0.014,0.014 -0.041,0.014 -0.055,0.027c-6.048,2.667 -12.604,4 -19.188,4.756c-1.863,-2.111 2.611,-9.608 1.993,-12.81c-10.348,0.61 0.179,-11.408 0.522,-25.621c-13.678,2.805 3.34,-37.73 0,-49.193c1.773,-9.401 5.539,-16.109 10.336,-20.672l29.855,12.838z"/>
					<path id="svg_17" fill="#7F7D59" d="m201.890994,178.93788c-6.075,8.508 1.993,36.053 -11.999,51.667c-4.082,4.55 -8.769,7.711 -13.814,9.951c-0.013,0 -0.027,0.014 -0.041,0.014c-0.014,0.014 -0.041,0.014 -0.055,0.027c-6.556,2.474 -4.096,-11.518 -6.777,-16.192c-10.418,5.264 -1.058,-14.391 -4.151,-23.504c-10.474,6.776 -0.467,-38.019 -5.745,-43.173c6.378,-33.799 38.555,-32.754 51.007,-22.693c11.121,8.977 14.447,35.862 -8.425,43.903z"/>
					<g id="svg_18">
						<path id="svg_19" fill="#9A3A38" d="m158.791994,163.88288c-16.845,-67.682 -92.418,-158.955 -105.788,-140.676c-22.076,30.18 101.577,143.978 101.577,143.978l4.211,-3.302z"/>
						<path id="svg_20" fill="#9A3A38" d="m154.580994,167.18488c-23.63,-70.867 -93.586,-122.649 -103.876,-105.258c-15.324,25.896 100.367,108.965 100.367,108.965l3.509,-3.707z"/>
						<path id="svg_21" fill="#9A3A38" d="m151.070994,170.89088c-32.808,-68.211 -97.633,-96.986 -104.344,-76.679c-9.124,27.607 101.537,80.913 101.537,80.913l2.807,-4.234z"/>
						<path id="svg_22" fill="#9A3A38" d="m147.108994,171.70788c-35.811,-36.085 -89.129,-65.356 -93.832,-47.549c-6.083,23.034 91.243,50.966 91.243,50.966l2.589,-3.417z"/>
						<path id="svg_23" fill="#9A3A38" d="m144.519994,175.12488c-38.193,-32.25 -81.566,-44.348 -83.815,-29.442c-2.983,19.769 81.768,33.043 81.768,33.043l2.047,-3.601z"/>
						<path id="svg_24" fill="#9A3A38" d="m142.472994,178.72588c-34.567,-14.268 -67.491,-24.914 -70.187,-12.454c-4.153,19.193 68.608,16.503 68.608,16.503l1.579,-4.049z"/>
						<path id="svg_25" fill="#9A3A38" d="m141.442994,181.36688c-27.805,-5.504 -57.868,-11.138 -57.518,6.301c0.351,17.439 55.097,-1.628 55.097,-1.628l2.421,-4.673z"/>
					</g>
					<g id="svg_26">
						<path id="svg_27" fill="#EF913D" d="m208.009994,169.82688l1.893,4.809c23.598,2.22 39.487,10.91 48.144,18.308c-15.47,-20.415 -44.246,-24.592 -50.037,-23.117z"/>
						<path id="svg_28" fill="#FFD44D" d="m218.689994,158.93888c28.011,10.169 40.908,27.82 45.119,40.98c-17.898,-25.882 -55.798,-30.093 -55.798,-30.093c4.386,-9.404 10.679,-10.887 10.679,-10.887z"/>
					</g>
					<g id="svg_29">
						<g id="svg_30">
							<path id="svg_31" fill="none" stroke="#28211C" stroke-width="0.5" stroke-linecap="round" stroke-linejoin="round" stroke-miterlimit="10" d="m198.539994,152.05788c0.508,0.964 1.394,1.721 2.425,2.074c1.031,0.352 2.195,0.296 3.187,-0.155"/>
							<g id="svg_32">
								<line id="svg_33" fill="none" stroke="#28211C" stroke-width="0.5" stroke-linecap="round" stroke-linejoin="round" stroke-miterlimit="10" y2="168.14288" x2="168.968994" y1="166.65088" x1="169.670994"/>
								<line id="svg_34" fill="none" stroke="#28211C" stroke-width="0.5" stroke-linecap="round" stroke-linejoin="round" stroke-miterlimit="10" y2="170.24788" x2="170.679994" y1="168.09888" x1="171.249994"/>
							</g>
							<g id="svg_35">
								<line id="svg_36" fill="none" stroke="#28211C" stroke-width="0.5" stroke-linecap="round" stroke-linejoin="round" stroke-miterlimit="10" y2="191.91288" x2="143.837994" y1="190.42188" x1="144.539994"/>
								<line id="svg_37" fill="none" stroke="#28211C" stroke-width="0.5" stroke-linecap="round" stroke-linejoin="round" stroke-miterlimit="10" y2="194.01888" x2="145.548994" y1="191.86888" x1="146.118994"/>
							</g>
							<g id="svg_38">
								<line id="svg_39" fill="none" stroke="#28211C" stroke-width="0.5" stroke-linecap="round" stroke-linejoin="round" stroke-miterlimit="10" y2="198.10188" x2="188.753994" y1="196.51988" x1="188.289994"/>
								<line id="svg_40" fill="none" stroke="#28211C" stroke-width="0.5" stroke-linecap="round" stroke-linejoin="round" stroke-miterlimit="10" y2="199.91888" x2="186.739994" y1="197.70788" x1="186.506994"/>
							</g>
							<g id="svg_41">
								<line id="svg_42" fill="none" stroke="#28211C" stroke-width="0.5" stroke-linecap="round" stroke-linejoin="round" stroke-miterlimit="10" y2="147.31988" x2="186.506994" y1="145.73788" x1="186.042994"/>
								<line id="svg_43" fill="none" stroke="#28211C" stroke-width="0.5" stroke-linecap="round" stroke-linejoin="round" stroke-miterlimit="10" y2="149.13688" x2="184.492994" y1="146.92488" x1="184.259994"/>
							</g>
							<g id="svg_44">
								<line id="svg_45" fill="none" stroke="#28211C" stroke-width="0.5" stroke-linecap="round" stroke-linejoin="round" stroke-miterlimit="10" y2="236.34088" x2="147.108994" y1="234.75888" x1="146.644994"/>
								<line id="svg_46" fill="none" stroke="#28211C" stroke-width="0.5" stroke-linecap="round" stroke-linejoin="round" stroke-miterlimit="10" y2="238.15788" x2="145.094994" y1="235.94688" x1="144.861994"/>
							</g>
							<g id="svg_47">
								<line id="svg_48" fill="none" stroke="#28211C" stroke-width="0.5" stroke-linecap="round" stroke-linejoin="round" stroke-miterlimit="10" y2="224.74088" x2="127.721994" y1="223.09488" x1="127.807994"/>
								<line id="svg_49" fill="none" stroke="#28211C" stroke-width="0.5" stroke-linecap="round" stroke-linejoin="round" stroke-miterlimit="10" y2="225.78788" x2="125.218994" y1="223.62388" x1="125.731994"/>
							</g>
						</g>
						<g id="svg_50">
							<path id="svg_51" fill="none" stroke="#28211C" stroke-width="0.5" stroke-linecap="round" stroke-linejoin="round" stroke-miterlimit="10" d="m58.105994,55.80788c17.019,31.585 57.975,73.977 80.67,96.25"/>
							<path id="svg_52" fill="none" stroke="#28211C" stroke-width="0.5" stroke-linecap="round" stroke-linejoin="round" stroke-miterlimit="10" d="m59.805994,89.72588c17.007,22.441 50.822,50.258 72.174,66.812"/>
							<path id="svg_53" fill="none" stroke="#28211C" stroke-width="0.5" stroke-linecap="round" stroke-linejoin="round" stroke-miterlimit="10" d="m60.627994,120.29788c16.184,15.048 42.727,30.916 62.368,41.688"/>
							<path id="svg_54" fill="none" stroke="#28211C" stroke-width="0.5" stroke-linecap="round" stroke-linejoin="round" stroke-miterlimit="10" d="m65.680994,142.33788c13.159,9.097 34.158,17.659 51.177,23.75"/>
							<path id="svg_55" fill="none" stroke="#28211C" stroke-width="0.5" stroke-linecap="round" stroke-linejoin="round" stroke-miterlimit="10" d="m76.734994,161.39588c10.06,4.544 23.334,8.338 35.319,11.207"/>
							<path id="svg_56" fill="none" stroke="#28211C" stroke-width="0.5" stroke-linecap="round" stroke-linejoin="round" stroke-miterlimit="10" d="m89.110994,179.28788c5.527,1.262 11.869,2.095 18.175,2.64"/>
						</g>
						<path id="svg_57" fill="none" stroke="#28211C" stroke-width="0.5" stroke-linecap="round" stroke-linejoin="round" stroke-miterlimit="10" d="m116.857994,192.30588c6.477,-1.576 14.122,-5.269 14.122,-5.269"/>
					</g>
				</g>
			</g>
		</g>
	</g>
</svg>