<?xml version="1.0" encoding="utf-8"?>
<!-- Generator: Adobe Illustrator 27.5.0, SVG Export Plug-In . SVG Version: 6.00 Build 0)  -->
<svg version="1.1" xmlns="http://www.w3.org/2000/svg" xmlns:xlink="http://www.w3.org/1999/xlink" x="0px" y="0px"
	 viewBox="0 0 4000 4000" style="enable-background:new 0 0 4000 4000;" xml:space="preserve">
<g id="Layer_2">
	<g>
		<path style="fill:#231916;" d="M2232.588,1862.988c25.583,37.266,53.369,70.227,82.624,99.366l3.872,3.856l1.889,5.133
			c10.575,28.748,22.872,58.364,37,88.807c13.64,29.394,29.432,60.445,47.51,93.188c14.602,26.447,29.891,51.37,45.74,74.933
			c15.827,23.535,32.171,45.643,48.906,66.502l48.276,60.169l-76.068-21.503c-731.216-206.704-471.116-875.299-470.389-877.227
			l33.122-88.017l16.601,92.173c28.623,158.92,108.207,271.773,108.435,272.102l1.315,1.883l1.009,2.274
			C2183.244,1783.573,2206.867,1825.519,2232.588,1862.988 M2274.154,1992.691c-29.784-30.119-58.212-64.166-84.621-102.637
			c-27.007-39.343-51.791-83.2-73.62-132.084c-8.587-12.653-56.917-86.452-91.095-193.172
			c-35.787,171.097-53.006,535.572,387.679,697.126l-4.732-6.976c-16.555-24.616-32.585-50.754-47.961-78.605
			c-17.993-32.589-34.273-64.706-48.926-96.282C2296.75,2049.62,2284.546,2020.499,2274.154,1992.691z"/>
		<path style="fill:#231916;" d="M2827.052,1584.478c223.148,206.079,400.198,634.078,281.77,1306.53l-14.543,82.582l-34.674-76.878
			c-55.712-123.517-163.239-201.792-283.289-289.178c-140.884-102.553-298.362-217.186-416.513-431.188
			c-152.318-275.882-164.933-478.872-102.598-601.173c47.885-93.956,138.391-141.177,244.777-139.048
			C2604.347,1438.174,2721.293,1486.807,2827.052,1584.478 M3069.735,2809.519c90.305-610.99-73.375-1000.07-278.46-1189.468
			c-96.044-88.698-200.33-132.825-290.303-134.628c-85.949-1.719-158.902,36.111-197.276,111.402
			c-55.852,109.584-41.751,296.533,101.788,556.512c112.806,204.319,265.531,315.493,402.163,414.951
			C2910.984,2643.51,3005.458,2712.295,3069.735,2809.519z"/>
		<path style="fill:#231916;" d="M2807.65,2568.289c41.263,30.038,81.093,59.031,118.511,89.567l1.184,0.966l1.341,1.45
			c48.935,52.87,85.447,128.199,112.496,206.474c26.54,76.805,44.17,156.968,55.447,220.917l0.445,2.519l-0.142,2.701
			c-7.312,139.337-125.106,375.318-125.445,376.001L2903.017,3607l19.454-151.649c67.185-523.709-268.284-940.096-269.246-941.309
			l-136.028-171.417l173.016,137.584C2728.796,2510.891,2768.858,2540.054,2807.65,2568.289 M2891.37,2694.354
			c-35.43-28.834-74.059-56.981-114.067-86.104c85.372,144.177,205.843,401.971,205.697,708.313
			c28.773-71.969,58.208-159.297,62.225-223.424c-10.909-61.312-27.83-137.628-53.158-210.924
			C2967.13,2810.053,2934.246,2741.331,2891.37,2694.354z"/>
		<path style="fill:#231916;" d="M2992.066,2882.214c-25.186-72.884-58.48-142.264-101.986-189.27l-127.207-137.438
			c20.55,12.477,43.031,22.839,66.92,28.922c2.952,0.75,5.667,1.217,8.236,1.502l88.132,71.925
			c37.601,30.685,72.393,62.686,103.013,98.358c14.586,16.991,28.165,34.735,40.58,53.466
			c14.384-97.225,22.329-188.727,24.682-274.609c3.135-114.397-3.632-219.271-18.28-314.781l-46.255-301.581l71.295,190.891h0.002
			l25.591,101.313c0.423,1.677,149.471,580.962-14.061,1013.59l-40.271,106.537l-9.756-112.917
			c-0.013-0.146-4.398-50.83-17.01-122.339C3034.802,3034.031,3017.759,2956.569,2992.066,2882.214 M3035.631,2851.099
			c1.892,5.2,3.744,10.418,5.552,15.648c26.54,76.805,44.17,156.968,55.447,220.917l1.727,9.945
			c34.324-137.285,42.649-282.962,38.735-415.262c-6.213,66.795-15.531,136.342-28.269,208.66l-14.545,82.582l-34.673-76.878
			C3052.404,2880.748,3044.386,2865.585,3035.631,2851.099z"/>
		<path style="fill:#231916;" d="M2115.314,934.855c75.189,221.28-60.181,253.936-60.566,254.035l-11.751,3.077l-9.876-6.654
			c-0.369-0.249-128.843-85.908-134.991-156.486l-0.819-9.394l6.075-7.62c73.431-92.109,186.438-93.964,186.762-93.972l19.217-0.491
			L2115.314,934.855z M2051.319,1136.854c19.238-11.407,56.203-49.589,20.941-167.706c-27.643,4.441-79.96,18.69-120.779,64.29
			C1963.173,1070.42,2025.271,1118.126,2051.319,1136.854z"/>
		<path style="fill:#231916;" d="M2168.187,526.114c-6.108,84.666-77.159,157.171-130.722,200.309
			c41.688-2.728,76.714-14.229,103.398-31.479c21.901-14.158,38.023-32.081,47.315-51.955c9.093-19.444,11.772-41.02,7.026-62.956
			C2191.335,562.148,2182.506,543.893,2168.187,526.114 M1950.574,726.739c0.607-0.36,212.569-124.351,157.303-257.214
			l-31.756-76.344l70.463,46.958c57.656,38.42,89.284,84.44,99.151,130.034c6.988,32.288,3.001,64.135-10.462,92.922
			c-13.261,28.357-35.588,53.494-65.507,72.836c-50.443,32.61-122.888,49.041-209.592,36.241l-63.782-9.417L1950.574,726.739z"/>
		<path style="fill:#231916;" d="M1984.21,2257.769c97.707-25.715,220.624-44.265,347.495-28.229l4.318,0.545l3.766,1.774
			c21.808,10.273,44.841,19.946,69.153,28.941c24.388,9.022,50.342,17.469,77.948,25.271l8.092,2.288l5.146,6.413
			c29.88,37.24,61.071,70.598,92.892,101.084c32.132,30.785,64.733,58.538,97.192,84.353l2.396,1.904l1.647,2.06
			c0.304,0.38,105.263,130.662,188.55,337.928l6.202,15.438l-151.9,135.893l-24.644-143.793
			c-21.527-69.321-47.265-128.366-76.221-178.454c-83.826-144.998-194.758-213.781-308.011-239.613
			c-114.538-26.127-232.314-8.986-327.469,17.922c-90.429,25.571-160.463,59.98-188.507,74.813l-38.302,20.257v-188.903l14.25-6.885
			C1814.227,2316.201,1886.664,2283.442,1984.21,2257.769 M2320.802,2277.935c-117.427-14.09-231.731,3.358-323.051,27.393
			c-78.538,20.67-140.067,46.251-172.054,60.845v75.829c37.838-17.696,93.894-41.037,160.511-59.875
			c102.154-28.885,229.108-47.171,353.947-18.694c126.129,28.77,249.244,104.631,341.363,263.973
			c30.809,53.292,58.136,116.061,80.9,189.706l0.434,1.408l9.581,55.888l55.981-50.082
			c-73.441-177.051-160.894-291.936-173.604-308.181c-33.101-26.412-66.14-54.603-98.377-85.488
			c-31.517-30.195-62.44-63.076-92.167-99.531c-25.768-7.485-50.392-15.609-73.921-24.314
			C2365.754,2297.713,2342.594,2288.069,2320.802,2277.935z"/>
		<path style="fill:#231916;" d="M1835.964,2257.604c-197.639,3.438-279.8-325.937,8.297-482.366
			C1808.36,1985.01,2066.8,2104.751,1835.964,2257.604 M1855.008,2177.728c82.37-94.436-64.146-215.378-49.74-330.826
			c-122.991,101.594-132.636,319.74,6.02,341.581c-0.181-0.188-44.611-46.552-40.342-172.333
			C1770.946,2016.15,1790.232,2137.153,1855.008,2177.728z"/>
		<g>
			<g>

					<text transform="matrix(1.0455 0 0 1 776.8848 2856.498)" style="fill:white; font-family:'NexaBold'; font-size:416.0568px;">POPUG</text>
			</g>
		</g>
		<path style="fill-rule:evenodd;clip-rule:evenodd;fill:#0286CF;" d="M2405.483,2153.337
			c111.679,202.28,262.485,313.264,398.066,411.969c1.369,0.995,2.735,1.99,4.097,2.982c7.431,5.409,14.816,10.785,22.146,16.141
			c2.953,0.752,5.67,1.217,8.235,1.502l80.606,65.781c58.721,47.157,110.836,96.901,151.101,157.806
			c19.961-135.06,27.512-259.276,24.95-372.89c-1.775-76.817-8.187-148.912-18.529-216.339l-2.843-18.53
			c-45.303-272.978-155.831-465.154-282.039-581.709c-96.043-88.698-200.33-132.825-290.303-134.628
			c-85.949-1.72-158.902,36.111-197.276,111.402c-31.04,60.902-40.475,145.699-18.091,253.649c1.313,2.986,2.579,5.876,3.796,8.654
			c6.368,34.478,16.726,71.857,31.573,112.215c6.818,18.532,14.35,37.425,22.628,56.668
			C2360.735,2067.693,2381.267,2109.476,2405.483,2153.337"/>
		<path style="fill-rule:evenodd;clip-rule:evenodd;fill:#F8B22F;" d="M2257.204,1575.172
			c47.886-93.956,138.392-141.177,244.778-139.049c53.044,1.063,110.003,14.633,167.292,41.053
			c-67.309-102.442-120.81-223.218-172.205-339.252c-48.739-110.041-95.544-215.718-149.887-295.206
			c-43.448-63.551-92.324-109.636-152.439-125.813c-7.607,6.822-15.946,13.188-24.975,19.025
			c-32.243,20.845-73.476,35.079-121.677,39.294c50.012,55.318,64.028,131.195,67.448,156.627c0.319,2.38,0.547,4.317,0.702,5.752
			c58.477,174.94-15.618,230.712-47.874,246.089c-23.473,63.081-32.672,131.583-30.21,201.641l13.515,75.035
			c28.623,158.92,108.207,271.772,108.435,272.102l1.315,1.883l1.009,2.275c20.813,46.946,44.437,88.891,70.157,126.359
			c1.623,2.366,3.258,4.715,4.898,7.045C2209.983,1745.319,2220.842,1646.516,2257.204,1575.172z"/>
		<path style="fill:none;stroke:#231916;stroke-width:0.5669;stroke-miterlimit:22.9256;" d="M2257.204,1575.172
			c47.886-93.956,138.392-141.177,244.778-139.049c53.044,1.063,110.003,14.633,167.292,41.053
			c-67.309-102.442-120.81-223.218-172.205-339.252c-48.739-110.041-95.544-215.718-149.887-295.206
			c-43.448-63.551-92.324-109.636-152.439-125.813c-7.607,6.822-15.946,13.188-24.975,19.025
			c-32.243,20.845-73.476,35.079-121.677,39.294c50.012,55.318,64.028,131.195,67.448,156.627c0.319,2.38,0.547,4.317,0.702,5.752
			c58.477,174.94-15.618,230.712-47.874,246.089c-23.473,63.081-32.672,131.583-30.21,201.641l13.515,75.035
			c28.623,158.92,108.207,271.772,108.435,272.102l1.315,1.883l1.009,2.275c20.813,46.946,44.437,88.891,70.157,126.359
			c1.623,2.366,3.258,4.715,4.898,7.045C2209.983,1745.319,2220.842,1646.516,2257.204,1575.172z"/>
		<path style="fill-rule:evenodd;clip-rule:evenodd;fill:#00478F;" d="M2274.47,1993.537
			c-111.563-99.208-204.791-247.27-252.917-404.896c-0.283-0.927-0.565-1.856-0.845-2.784
			c-32.326,178.385-31.568,520.852,391.76,676.058c-18.245-26.68-35.853-55.119-52.665-85.571
			c-25.929-46.962-47.81-91.813-65.961-134.513C2286.796,2025.316,2280.346,2009.218,2274.47,1993.537z"/>
		<path style="fill:none;stroke:#231916;stroke-width:0.5669;stroke-miterlimit:22.9256;" d="M2274.47,1993.537
			c-111.563-99.208-204.791-247.27-252.917-404.896c-0.283-0.927-0.565-1.856-0.845-2.784
			c-32.326,178.385-31.568,520.852,391.76,676.058c-18.245-26.68-35.853-55.119-52.665-85.571
			c-25.929-46.962-47.81-91.813-65.961-134.513C2286.796,2025.316,2280.346,2009.218,2274.47,1993.537z"/>
		<path style="fill-rule:evenodd;clip-rule:evenodd;fill:#FFCE4B;" d="M1951.481,1033.438
			c11.692,36.981,73.79,84.688,99.838,103.416c19.238-11.407,56.203-49.589,20.941-167.704
			C2044.614,973.596,1992.295,987.844,1951.481,1033.438z"/>
		<path style="fill:none;stroke:#231916;stroke-width:0.5669;stroke-miterlimit:22.9256;" d="M1951.481,1033.438
			c11.692,36.981,73.79,84.688,99.838,103.416c19.238-11.407,56.203-49.589,20.941-167.704
			C2044.614,973.596,1992.295,987.844,1951.481,1033.438z"/>
		<path style="fill-rule:evenodd;clip-rule:evenodd;fill:#FFCE4B;" d="M1903.386,1011.813
			c50.508-63.357,119.742-84.012,158.15-90.735c-7.503-38.91-30.293-115.72-95.704-145.87
			c-38.546,22.294-71.731,55.355-96.333,93.788c-24.128,37.692-39.889,80.31-44.282,122.805
			c-4.297,41.573,2.333,83.004,22.775,119.354c6.767,12.033,15.077,23.551,25.038,34.381
			c-2.126-58.736,16.72-106.216,24.535-123.214l-0.253-2.888l4.508-5.655L1903.386,1011.813z"/>
		<path style="fill:none;stroke:#231916;stroke-width:0.5669;stroke-miterlimit:22.9256;" d="M1903.386,1011.813
			c50.508-63.357,119.742-84.012,158.15-90.735c-7.503-38.91-30.293-115.72-95.704-145.87
			c-38.546,22.294-71.731,55.355-96.333,93.788c-24.128,37.692-39.889,80.31-44.282,122.805
			c-4.297,41.573,2.333,83.004,22.775,119.354c6.767,12.033,15.077,23.551,25.038,34.381
			c-2.126-58.736,16.72-106.216,24.535-123.214l-0.253-2.888l4.508-5.655L1903.386,1011.813z"/>
		<path style="fill-rule:evenodd;clip-rule:evenodd;fill:#E57E22;" d="M2037.465,726.423c41.688-2.727,76.714-14.229,103.398-31.479
			c21.901-14.158,38.023-32.081,47.315-51.955c9.093-19.444,11.772-41.02,7.026-62.956c-3.871-17.884-12.698-36.14-27.018-53.918
			C2162.079,610.779,2091.028,683.285,2037.465,726.423z"/>
		<path style="fill:none;stroke:#231916;stroke-width:0.5669;stroke-miterlimit:22.9256;" d="M2037.465,726.423
			c41.688-2.727,76.714-14.229,103.398-31.479c21.901-14.158,38.023-32.081,47.315-51.955c9.093-19.444,11.772-41.02,7.026-62.956
			c-3.871-17.884-12.698-36.14-27.018-53.918C2162.079,610.779,2091.028,683.285,2037.465,726.423z"/>
		<path style="fill-rule:evenodd;clip-rule:evenodd;fill:#00478F;" d="M2891.572,2694.575c-35.708-29.112-74.27-57.209-114.235-86.3
			c8.269,13.976,16.867,29.02,25.652,45.069c27.403,50.024,56.632,109.84,83.391,177.653l2.628,6.542l-0.047,0.044
			c52.054,133.727,94.127,297.869,94.04,478.979c28.773-71.969,58.208-159.297,62.225-223.425
			c-10.909-61.311-27.832-137.626-53.158-210.924c-24.892-72.036-57.706-140.65-100.472-187.62
			C2891.586,2694.588,2891.579,2694.581,2891.572,2694.575z"/>
		<path style="fill:none;stroke:#231916;stroke-width:0.5669;stroke-miterlimit:22.9256;" d="M2891.572,2694.575
			c-35.708-29.112-74.27-57.209-114.235-86.3c8.269,13.976,16.867,29.02,25.652,45.069c27.403,50.024,56.632,109.84,83.391,177.653
			l2.628,6.542l-0.047,0.044c52.054,133.727,94.127,297.869,94.04,478.979c28.773-71.969,58.208-159.297,62.225-223.425
			c-10.909-61.311-27.832-137.626-53.158-210.924c-24.892-72.036-57.706-140.65-100.472-187.62
			C2891.586,2694.588,2891.579,2694.581,2891.572,2694.575z"/>
		<path style="fill-rule:evenodd;clip-rule:evenodd;fill:#00478F;" d="M3108.823,2891.008l-14.545,82.582l-34.673-76.878
			c-0.081-0.178-0.161-0.356-0.242-0.535c-7.075-15.629-14.982-30.534-23.639-44.825c1.861,5.116,3.68,10.249,5.459,15.396
			c26.54,76.805,44.17,156.968,55.447,220.917l0.444,2.52l-0.001,0.029l1.284,7.397c34.314-137.249,42.646-282.884,38.737-415.157
			c-5.796,62.243-14.298,126.926-25.758,194.069C3110.513,2881.338,3109.675,2886.167,3108.823,2891.008z"/>
		<path style="fill:none;stroke:#231916;stroke-width:0.5669;stroke-miterlimit:22.9256;" d="M3108.823,2891.008l-14.545,82.582
			l-34.673-76.878c-0.081-0.178-0.161-0.356-0.242-0.535c-7.075-15.629-14.982-30.534-23.639-44.825
			c1.861,5.116,3.68,10.249,5.459,15.396c26.54,76.805,44.17,156.968,55.447,220.917l0.444,2.52l-0.001,0.029l1.284,7.397
			c34.314-137.249,42.646-282.884,38.737-415.157c-5.796,62.243-14.298,126.926-25.758,194.069
			C3110.513,2881.338,3109.675,2886.167,3108.823,2891.008z"/>
		<path style="fill-rule:evenodd;clip-rule:evenodd;fill:#6E3C1B;" d="M2340.156,2363.433
			c126.129,28.77,249.244,104.631,341.363,263.973c30.809,53.292,58.136,116.061,80.9,189.706l0.435,1.408l9.579,55.888
			l55.981-50.082c-73.069-176.152-160.007-290.769-173.405-307.926c-65.094-51.886-130.368-111.064-190.844-185.304
			c-53.132-15.427-100.949-33.319-143.943-53.231c-117.222-13.962-231.3,3.468-322.468,27.463
			c-78.539,20.671-140.068,46.251-172.055,60.845v75.828c37.838-17.696,93.894-41.036,160.511-59.875
			C2088.363,2353.242,2215.317,2334.957,2340.156,2363.433z"/>
		<path style="fill:none;stroke:#231916;stroke-width:0.5669;stroke-miterlimit:22.9256;" d="M2340.156,2363.433
			c126.129,28.77,249.244,104.631,341.363,263.973c30.809,53.292,58.136,116.061,80.9,189.706l0.435,1.408l9.579,55.888
			l55.981-50.082c-73.069-176.152-160.007-290.769-173.405-307.926c-65.094-51.886-130.368-111.064-190.844-185.304
			c-53.132-15.427-100.949-33.319-143.943-53.231c-117.222-13.962-231.3,3.468-322.468,27.463
			c-78.539,20.671-140.068,46.251-172.055,60.845v75.828c37.838-17.696,93.894-41.036,160.511-59.875
			C2088.363,2353.242,2215.317,2334.957,2340.156,2363.433z"/>
		<path style="fill-rule:evenodd;clip-rule:evenodd;fill:#009B41;" d="M1855.008,2177.728
			c82.371-94.436-64.146-215.378-49.74-330.826c-122.991,101.594-132.636,319.74,6.02,341.581
			c-0.181-0.188-44.611-46.552-40.342-172.333C1770.946,2016.149,1790.232,2137.153,1855.008,2177.728z"/>
		<path style="fill:none;stroke:#231916;stroke-width:0.5669;stroke-miterlimit:22.9256;" d="M1855.008,2177.728
			c82.371-94.436-64.146-215.378-49.74-330.826c-122.991,101.594-132.636,319.74,6.02,341.581
			c-0.181-0.188-44.611-46.552-40.342-172.333C1770.946,2016.149,1790.232,2137.153,1855.008,2177.728z"/>
		<path style="fill:#231916;" d="M2116.527,940.557c0,0,58.704,162.996,17.093,285.637c0,0-3.755-108.909-25.732-150.017
			l3.285-69.531l3.249-40.094l-23.059,0.588c-0.252,0.006-86.991,1.429-145.342,72.676c-5.945,11.947-37.811,81.846-11.25,159.397
			l21.833,63.749l-59.833-35.038c-43.191-25.293-74.037-57.421-94.258-93.377c-25.554-45.439-33.904-96.62-28.638-147.58
			c5.174-50.034,23.522-99.884,51.56-143.685c31.446-49.122,75.219-90.957,126.454-117.317l10.246-5.273l10.978,3.919
			C2103.375,771.112,2116.487,940.071,2116.527,940.557 M1903.386,1011.813c50.508-63.357,119.743-84.012,158.15-90.735
			c-7.503-38.91-30.293-115.72-95.704-145.87c-38.546,22.294-71.731,55.355-96.333,93.788
			c-24.128,37.692-39.889,80.31-44.282,122.805c-4.297,41.573,2.333,83.004,22.775,119.354
			c6.767,12.033,15.077,23.551,25.038,34.381c-2.669-73.742,27.718-129.743,27.83-129.954l0.962-1.806L1903.386,1011.813z"/>
		<path style="fill:#231916;" d="M2692.823,1511.428c-78.645-109.124-138.506-244.255-195.754-373.504
			c-48.739-110.041-95.544-215.718-149.887-295.206c-49.976-73.097-107.133-123.089-180.313-131.037
			c20.167-17.003,38.934-35.257,41.574-46.187c71.777,19.3,130.132,74.298,181.995,150.156
			c56.42,82.526,104.287,190.598,154.131,303.135c70.927,160.133,145.957,329.531,253.823,440.909l117.229,121.047l-66.258-36.875
			c0.52-4.897,0.809-7.974,0.809-7.974L2692.823,1511.428z M2222.087,1744.739c0,0-26.122-262.931,189.356-380.06
			c0,0-73.605,92.019-79.08,178.525l-84.317,88.695L2222.087,1744.739z M2243.028,1889.327
			c-13.189-59.529-15.957-112.212-10.211-158.221c19.208,43.267,41.666,93.966,56.583,128.021
			c6.368,34.478,16.726,71.857,31.573,112.215l34.033,92.521l-75.774-66.131c-113.669-99.202-208.87-249.228-257.679-409.092
			c-44.451-145.594-50.64-299.843,2.269-432.327l4.652-11.649l12.731-3.335c0.237-0.061,83.287-19.642,24.992-191.203l-0.975-2.865
			l-0.24-2.838c-0.032-0.395-10.797-138.245-109.86-173.607l-47.858-17.083l42.702-26.706
			c36.871-23.059,71.235-39.889,103.408-51.171c-9.259,15.371-18.892,29.336-25.514,31.944
			c-14.546,5.729-52.091,10.433-46.581,19.948c3.339,5.766,27.586,18.555,46.181,27.738c72.64,59.886,86.806,163.75,88.789,182.21
			c58.409,174.863-15.649,230.619-47.884,245.996c-44.538,119.693-37.689,258.9,2.71,391.222
			C2106.6,1691.265,2167.914,1801.937,2243.028,1889.327z"/>
		<path style="fill-rule:evenodd;clip-rule:evenodd;fill:#E57E22;" d="M2492.353,1127.279
			c30.461,268.967-261.788,90.954-323.15,488.193c-63.325-137.206,88.041-387.962-50.671-670.865
			c54.198,169.43-18.343,223.915-50.165,239.086c-23.473,63.081-32.672,131.583-30.21,201.641l13.515,75.035
			c28.623,158.92,108.207,271.772,108.435,272.102l1.315,1.883l1.009,2.275c20.813,46.946,44.437,88.891,70.157,126.359
			c1.623,2.366,3.258,4.715,4.898,7.045c-27.502-124.712-16.644-223.516,19.718-294.859
			c47.886-93.956,138.392-141.177,244.778-139.049c53.044,1.063,110.003,14.633,167.292,41.053
			c-67.309-102.442-120.81-223.218-172.205-339.252C2495.496,1134.371,2493.924,1130.822,2492.353,1127.279"/>
		<path style="fill-rule:evenodd;clip-rule:evenodd;fill:#00478F;" d="M2924.761,2427.975
			c-499.327-166.442-651.106-706.166-651.106-706.166c-1.567,38.389,2.128,81.298,11.949,128.665
			c1.313,2.986,2.579,5.876,3.796,8.654c6.368,34.478,16.726,71.857,31.573,112.215c6.818,18.532,14.35,37.425,22.628,56.668
			c17.134,39.682,37.666,81.465,61.882,125.326c111.679,202.28,262.485,313.264,398.066,411.969c1.369,0.995,2.735,1.99,4.097,2.982
			c7.431,5.409,14.816,10.785,22.146,16.141c2.953,0.752,5.67,1.217,8.235,1.502l80.606,65.781
			c58.721,47.157,110.836,96.901,151.101,157.806c19.961-135.06,27.512-259.276,24.95-372.89
			c-1.775-76.817-8.187-148.912-18.529-216.339l-2.843-18.53c-10.196-61.44-23.698-118.786-39.938-172.099
			C3036.872,2244.552,2924.761,2427.975,2924.761,2427.975"/>
		<path style="fill-rule:evenodd;clip-rule:evenodd;fill:#29C4FF;" d="M2273.655,1721.809c0,0,338.357-333.553,759.722,307.851
			c-55.914-183.555-144.3-319.288-242.102-409.61c-96.043-88.698-200.33-132.825-290.303-134.628
			c-85.949-1.72-158.902,36.111-197.276,111.402C2286.275,1631.004,2275.659,1672.708,2273.655,1721.809"/>
		<path style="fill-rule:evenodd;clip-rule:evenodd;fill:#E57E22;" d="M1903.386,1011.813
			c50.508-63.357,119.742-84.012,158.15-90.735c-4.134-21.432-12.904-54.363-30.881-84.661
			c-215.188,66.299-157.626,309.118-157.626,309.118c-2.126-58.736,16.72-106.216,24.535-123.214l-0.253-2.888l4.508-5.655
			L1903.386,1011.813z"/>
		<path style="fill-rule:evenodd;clip-rule:evenodd;fill:#E57E22;" d="M2072.26,969.151c-26.617,4.28-76.103,17.646-116.174,59.324
			c48.603-23.802,99.999-10.483,129.258,1.281C2083.303,1012.354,2079.167,992.287,2072.26,969.151"/>
		<path style="fill-rule:evenodd;clip-rule:evenodd;fill:#FFCE4B;" d="M2195.465,761.36c0,0,158.833,67.002,281.87,332.116
			c-41.829-93.757-83.175-182.044-130.153-250.758c-43.448-63.551-92.324-109.636-152.439-125.813
			c-7.607,6.822-15.946,13.187-24.975,19.025c-32.243,20.845-73.476,35.079-121.677,39.294
			C2048.091,775.224,2154.95,773.406,2195.465,761.36"/>
	</g>
</g>
</svg>
